<svg width="90" height="135" viewBox="218 215 90 135" fill="none" xmlns="http://www.w3.org/2000/svg">
<path d="M308 340.907C308 345.929 303.561 350 298.085 350L227.915 350C222.439 350 218 345.929 218 340.907L218 224.093C218 219.071 222.439 215 227.915 215L298.085 215C303.561 215 308 219.071 308 224.093L308 340.907Z" fill="#FF4444"/>
<circle cx="226.391" cy="224.15" r="3.05085" fill="#FAFAFA"/>
<circle cx="298.842" cy="224.15" r="3.05085" fill="#FAFAFA"/>
<circle cx="298.842" cy="341.608" r="3.05085" fill="#FAFAFA"/>
<circle cx="226.391" cy="341.608" r="3.05085" fill="#FAFAFA"/>
<path d="M296.455 322.165L305.134 326.889C306.067 327.396 307.039 327.671 308 327.743L308 322.956C307.796 322.909 307.593 322.833 307.396 322.725L298.717 318.002C297.955 317.588 297.48 316.789 297.48 315.921L297.48 250.948C297.48 250.066 297.97 249.256 298.75 248.848L307.43 244.306C307.617 244.208 307.808 244.138 308 244.093L308 239.307C307.075 239.377 306.138 239.634 305.236 240.106L296.557 244.649C294.214 245.875 292.746 248.302 292.746 250.948L292.746 315.921C292.746 318.525 294.169 320.921 296.455 322.165Z" fill="#FAFAFA"/>
<path d="M253.848 313.796C253.848 314.77 253.068 315.559 252.107 315.559L250.367 315.559C249.405 315.559 248.626 314.77 248.626 313.796L248.626 249.441C248.626 248.467 249.405 247.678 250.367 247.678L252.107 247.678C253.068 247.678 253.848 248.467 253.848 249.441L253.848 313.796Z" fill="#FAFAFA"/>
<path d="M276.729 313.796C276.729 314.77 275.95 315.559 274.988 315.559L273.248 315.559C272.287 315.559 271.507 314.77 271.507 313.796L271.507 249.441C271.507 248.467 272.287 247.678 273.248 247.678L274.988 247.678C275.95 247.678 276.729 248.467 276.729 249.441L276.729 313.796Z" fill="#FAFAFA"/>
<path d="M262.619 305.436C257.66 305.436 253.64 309.456 253.64 314.415C253.64 319.374 257.66 323.394 262.619 323.394C267.578 323.394 271.598 319.374 271.598 314.415L276.729 314.415C276.729 322.208 270.412 328.525 262.619 328.525C254.826 328.525 248.509 322.208 248.509 314.415C248.509 306.622 254.826 300.305 262.619 300.305C270.412 300.305 276.729 306.622 276.729 314.415L271.598 314.415C271.598 309.456 267.578 305.436 262.619 305.436Z" fill="#FAFAFA"/>
<path d="M262.619 242.131C257.66 242.131 253.64 246.151 253.64 251.11C253.64 256.069 257.66 260.089 262.619 260.089C267.578 260.089 271.598 256.069 271.598 251.11L276.729 251.11C276.729 258.903 270.412 265.22 262.619 265.22C254.826 265.22 248.509 258.903 248.509 251.11C248.509 243.317 254.826 237 262.619 237C270.412 237 276.729 243.317 276.729 251.11L271.598 251.11C271.598 246.151 267.578 242.131 262.619 242.131Z" fill="#FAFAFA"/>
</svg>
